<?xml version="1.0" encoding="utf-8"?>
<!-- Generator: Adobe Illustrator 18.0.0, SVG Export Plug-In . SVG Version: 6.00 Build 0)  -->
<!DOCTYPE svg PUBLIC "-//W3C//DTD SVG 1.1//EN" "http://www.w3.org/Graphics/SVG/1.1/DTD/svg11.dtd">
<svg version="1.1" id="Layer_1" xmlns="http://www.w3.org/2000/svg" xmlns:xlink="http://www.w3.org/1999/xlink" x="0px" y="0px"
	 viewBox="0 0 220 207" enable-background="new 0 0 220 207" xml:space="preserve">
<rect y="0" width="220" height="207"/>
<polygon fill="#F4EB3B" points="11.4,190.8 11.4,195.6 208.6,195.6 208.6,11.4 11.4,11.4 "/>
<rect x="164.2" y="78.2" width="10.4" height="12.1"/>
<polygon points="106.6,34.1 106.6,24.7 76.2,24.7 76.2,34.1 84.9,34.1 84.9,90.3 98,90.3 98,34.1 "/>
<g>
	<defs>
		<rect id="SVGID_1_" y="0" width="220" height="207"/>
	</defs>
	<clipPath id="SVGID_2_">
		<use xlink:href="#SVGID_1_"  overflow="visible"/>
	</clipPath>
	<path clip-path="url(#SVGID_2_)" d="M59.2,23.5c0,0-4.6-0.3-8.9,1.5c-3.6,1.5-6.9,4.5-6.9,10.1v8.2c0,0-0.7,7.4,7.3,13.4
		c7.9,6,10.9,13,10.9,19.6s-2.3,5.5-2.3,5.5s-2.5,0.8-2.5-5.4V64.6H44v15c0,0-0.9,12,15.5,12c0,0,15.2,0.6,15.2-12v-7
		c0,0,0.1-8.1-4.4-14.1c-0.9-1.3-3.9-4.4-7.6-7.3c-2.3-1.8-4.6-4.8-5.6-8.6c-0.4-1.3-0.7-5.6-0.4-7c0.2-1.3,0.8-2.5,2.2-2.5
		c2.6,0,2.3,6.5,2.3,6.9V48h12.9V36.3c0,0,0.2-3.3-1.2-6.3C71.3,26.6,67.5,23.5,59.2,23.5"/>
	<path clip-path="url(#SVGID_2_)" d="M126.3,57.5v19.4c0,5-2.1,5-2.5,5s-2.5,0-2.5-5V57.5V38.1c0-5,2.1-5,2.5-5s2.5,0,2.5,5V57.5z
		 M139.1,36.6c0-14.4-15.3-13.2-15.3-13.2s-15.3-1.2-15.3,13.2c0,14.2,0,0.3,0-0.1v21v21c0-0.4,0-14.4,0-0.1
		c0,14.4,15.3,13.2,15.3,13.2s15.3,1.2,15.3-13.2c0-14.2,0-0.3,0,0.1v-21v-21C139.2,36.9,139.1,50.8,139.1,36.6"/>
	<path clip-path="url(#SVGID_2_)" d="M160.3,45.1v5.5c0,5.1-2.8,4.7-2.8,4.7h-2V45.1V34h2c0,0,2.8-0.4,2.8,4.7V45.1z M158.4,24.6
		h-15.8v34.1v5.9v25.6h12.9V64.7h4.8c0,0,13.1-0.1,13.1-13.2v-5.3V46v-6.9C173.4,23.9,158.4,24.6,158.4,24.6"/>
</g>
<rect x="164.2" y="168.6" width="10.4" height="12.1"/>
<g>
	<defs>
		<rect id="SVGID_3_" y="0" width="220" height="207"/>
	</defs>
	<clipPath id="SVGID_4_">
		<use xlink:href="#SVGID_3_"  overflow="visible"/>
	</clipPath>
	<path clip-path="url(#SVGID_4_)" d="M59.2,113.9c0,0-4.6-0.3-8.9,1.5c-3.6,1.5-6.9,4.5-6.9,10.1v8.2c0,0-0.7,7.4,7.3,13.4
		c7.9,6,10.9,13,10.9,19.6c0,6.6-2.3,5.5-2.3,5.5s-2.5,0.8-2.5-5.4V155H44v15c0,0-0.9,12,15.5,12c0,0,15.2,0.6,15.2-12v-7
		c0,0,0.1-8.1-4.4-14.1c-0.9-1.3-3.9-4.4-7.6-7.3c-2.3-1.8-4.6-4.8-5.6-8.6c-0.4-1.3-0.7-5.6-0.4-7c0.2-1.3,0.8-2.5,2.2-2.5
		c2.6,0,2.3,6.5,2.3,6.9v8.1h12.9v-11.7c0,0,0.2-3.3-1.2-6.3C71.3,117,67.5,113.9,59.2,113.9"/>
	<path clip-path="url(#SVGID_4_)" d="M129.7,147.9v19.4c0,5-2.1,5-2.5,5s-2.5,0-2.5-5v-19.4v-19.4c0-5,2.1-5,2.5-5s2.5,0,2.5,5
		V147.9z M142.5,127c0-14.4-15.3-13.2-15.3-13.2s-15.3-1.2-15.3,13.2c0,14.2,0,0.3,0-0.1v21v21c0-0.4,0-14.4,0-0.1
		c0,14.4,15.3,13.2,15.3,13.2s15.3,1.2,15.3-13.2c0-14.2,0-0.3,0,0.1v-21v-21C142.5,127.3,142.5,141.3,142.5,127"/>
	<path clip-path="url(#SVGID_4_)" d="M163.4,135.5v5.5c0,5.1-2.8,4.7-2.8,4.7h-2v-10.2v-11.1h2c0,0,2.8-0.4,2.8,4.7V135.5z
		 M161.5,115h-15.8v34.1v5.9v25.6h12.9v-25.6h4.8c0,0,13.1-0.1,13.1-13.2v-5.3v-0.1v-6.9C176.5,114.4,161.5,115,161.5,115"/>
</g>
<rect x="45.1" y="97.6" width="130" height="12.1"/>
<polygon points="95.5,115.3 95.5,139.1 90.7,139.1 90.7,115.3 77.9,115.3 77.9,180.7 90.7,180.7 90.7,149.4 95.5,149.4 95.5,180.7 
	108.4,180.7 108.4,115.3 "/>
</svg>
